<?xml version="1.0" standalone="no"?>
<!DOCTYPE svg PUBLIC "-//W3C//DTD SVG 20010904//EN"
 "http://www.w3.org/TR/2001/REC-SVG-20010904/DTD/svg10.dtd">
<svg version="1.0" xmlns="http://www.w3.org/2000/svg"
 width="784.000000pt" height="784.000000pt" viewBox="0 0 784.000000 784.000000"
 preserveAspectRatio="xMidYMid meet">
<metadata>
Created by potrace 1.11, written by Peter Selinger 2001-2013
</metadata>
<g transform="translate(0.000000,784.000000) scale(0.100000,-0.100000)"
fill="#000000" stroke="none">
<path d="M2892 7599 c-83 -10 -161 -33 -250 -75 -80 -36 -195 -103 -200 -116
-2 -4 -10 -8 -17 -8 -7 0 -15 -3 -17 -7 -1 -5 -30 -28 -63 -53 -58 -44 -253
-232 -310 -300 -209 -247 -384 -551 -452 -785 -8 -27 -17 -57 -20 -65 -10 -25
-11 -31 -32 -140 -15 -80 -19 -138 -16 -250 1 -80 5 -156 8 -170 3 -14 8 -48
11 -75 8 -69 50 -234 82 -320 49 -129 144 -304 209 -385 96 -120 269 -264 375
-313 39 -17 91 -39 103 -42 4 -2 8 -3 10 -5 1 -1 9 -3 17 -6 199 -55 420 -39
596 42 59 28 185 106 215 134 9 8 38 35 64 60 99 92 208 246 277 390 23 49 83
210 93 250 24 94 36 148 40 183 3 23 10 69 15 102 8 59 5 626 -4 675 -3 14 -7
64 -11 111 -3 47 -7 95 -9 106 -2 11 -7 44 -10 74 -3 30 -8 65 -11 79 -3 14
-9 50 -15 80 -23 132 -51 243 -86 342 -29 81 -92 212 -126 261 -41 59 -146
154 -195 177 -26 12 -55 25 -64 30 -9 5 -43 12 -75 15 -33 4 -61 8 -64 9 -3 1
-33 -1 -68 -5z"/>
<path d="M4868 7605 c-1 -1 -21 -5 -43 -9 -68 -10 -81 -14 -141 -43 -50 -24
-153 -113 -189 -164 -17 -23 -75 -119 -75 -123 0 -3 -13 -33 -29 -68 -31 -68
-70 -190 -96 -303 -22 -96 -21 -85 -50 -273 -2 -13 -7 -53 -10 -90 -4 -37 -8
-78 -10 -91 -18 -110 -27 -710 -13 -816 20 -147 59 -305 103 -415 37 -92 87
-194 97 -198 4 -2 8 -8 8 -14 0 -11 87 -139 125 -183 73 -84 130 -138 200
-189 22 -17 43 -35 47 -40 4 -6 8 -8 8 -3 0 4 17 -4 38 -17 47 -31 175 -83
244 -98 29 -7 114 -12 188 -12 175 0 286 30 445 122 85 48 246 197 300 276 11
16 29 39 40 51 11 13 21 28 23 36 2 7 12 25 23 40 39 55 107 206 142 314 31
97 42 142 62 245 14 72 20 160 20 295 0 137 -6 186 -39 330 -23 97 -99 287
-167 414 -46 86 -157 267 -184 298 -5 7 -14 18 -20 25 -25 33 -91 115 -110
137 -70 84 -256 259 -349 328 -91 68 -266 167 -341 194 -49 17 -107 29 -161
35 -33 3 -64 7 -71 9 -6 2 -13 2 -15 0z"/>
<path d="M7037 5364 c-1 -2 -18 -5 -37 -7 -235 -28 -504 -263 -746 -653 -38
-61 -74 -119 -81 -130 -28 -44 -152 -296 -190 -384 -38 -88 -68 -170 -78 -216
-2 -10 -11 -46 -19 -79 -24 -100 -27 -134 -31 -295 -4 -164 6 -253 46 -385 23
-79 69 -188 81 -193 4 -2 8 -8 8 -14 0 -32 125 -181 211 -251 35 -28 164 -97
209 -111 14 -5 27 -9 30 -10 3 -1 21 -5 40 -9 19 -4 46 -10 60 -13 83 -18 300
2 395 37 255 94 461 255 626 489 32 47 62 90 67 95 40 51 153 324 166 400 3
17 7 41 10 55 4 14 9 48 12 75 3 28 8 61 10 75 5 31 6 307 0 335 -2 11 -7 47
-10 80 -30 256 -129 559 -243 738 -24 37 -43 69 -43 71 0 7 -54 69 -110 126
-99 100 -195 152 -313 168 -37 5 -68 7 -70 6z"/>
<path d="M664 5345 c-73 -21 -164 -77 -227 -139 -65 -63 -117 -122 -117 -131
0 -3 -5 -11 -10 -18 -19 -22 -79 -117 -74 -117 3 0 -3 -12 -14 -27 -34 -50
-124 -285 -147 -383 -19 -79 -44 -217 -50 -265 -4 -33 -9 -71 -11 -85 -6 -46
-6 -264 1 -343 6 -65 25 -169 50 -271 24 -99 127 -305 213 -426 83 -117 233
-268 334 -336 42 -29 74 -55 70 -60 -4 -4 -2 -4 4 -1 6 3 25 -3 43 -14 68 -41
223 -95 331 -114 35 -7 183 -8 230 -2 59 7 140 32 208 63 254 116 416 354 480
704 14 79 12 322 -4 410 -8 41 -16 91 -20 110 -35 203 -272 688 -460 945 -101
138 -136 179 -244 283 -122 119 -258 201 -371 222 -67 13 -162 11 -215 -5z"/>
<path d="M3837 4354 c-1 -1 -34 -4 -73 -7 -109 -10 -331 -62 -369 -87 -5 -4
-32 -15 -60 -25 -27 -10 -72 -31 -98 -47 -26 -15 -51 -28 -54 -28 -11 0 -113
-71 -186 -129 -164 -132 -247 -231 -385 -458 -158 -259 -302 -442 -518 -657
-94 -93 -103 -101 -239 -215 -233 -195 -390 -379 -501 -585 -43 -82 -107 -226
-99 -226 2 0 -3 -16 -11 -35 -17 -41 -39 -137 -50 -215 -12 -81 -9 -287 5
-350 6 -30 13 -66 16 -79 8 -42 47 -154 74 -211 171 -361 568 -640 1031 -725
14 -3 34 -7 46 -9 107 -22 404 -35 509 -22 17 2 62 6 100 10 39 4 77 9 85 11
8 2 31 7 50 10 19 3 47 8 61 10 39 7 232 60 341 93 99 31 112 34 233 52 70 11
256 14 329 5 82 -9 203 -38 311 -73 131 -43 314 -87 405 -97 30 -4 57 -8 60
-10 10 -6 217 -17 295 -16 90 1 197 8 241 15 16 3 49 8 74 11 25 4 65 11 90
17 25 5 56 12 70 14 41 8 226 72 271 93 23 11 46 18 50 15 5 -3 9 -1 9 4 0 6
19 20 43 31 23 12 51 27 62 34 55 33 101 62 112 72 6 5 26 21 45 35 18 13 69
61 114 105 172 173 283 390 318 625 12 81 13 287 2 340 -3 14 -11 50 -17 80
-19 99 -59 213 -114 325 -51 105 -157 276 -176 283 -5 2 -9 8 -9 13 0 5 -8 19
-17 31 -30 37 -267 274 -284 284 -9 5 -32 21 -50 37 -19 15 -71 54 -116 87
-110 79 -133 99 -238 205 -104 105 -135 141 -135 155 0 6 -4 10 -9 10 -9 0
-111 146 -153 220 -14 25 -47 88 -74 140 -27 52 -52 100 -56 105 -4 6 -30 44
-57 85 -112 171 -300 347 -476 445 -190 107 -366 166 -570 191 -46 6 -253 12
-258 8z"/>
</g>
</svg>
